<?xml version="1.0" standalone="no"?><?xml-stylesheet type="text/css" href="https://www.processon.com/themes/default/mind/icons/icons.css" ?><!DOCTYPE svg PUBLIC "-//W3C//DTD SVG 1.1//EN" "http://www.w3.org/Graphics/SVG/1.1/DTD/svg11.dtd"><svg xmlns="http://www.w3.org/2000/svg" xlink="http://www.w3.org/1999/xlink" id="mind-svg-view-con" version="1.1" width="1106.1875610351562px" height="931.0000610351562px"><defs></defs><g transform="translate(-9874.000671386719, -9534.000671386719)" id="sdjakdjak4"><defs></defs><g class="svg-topic-con" transform="translate(0.5,0.5)"><path part="right" sub="true" id="line_cdcedde63d0d" d="M 10000.000671386719 10000.000671386719 L 10126.000671386719 10000.000671386719 L 10126.000671386719 9792 A 8 8 0 0 1 10134.000671386719 9784 L 10156.000671386719 9784" stroke="#000000" fill="none" stroke-width="2"></path><path part="right" sub="true" id="line_622f8517d35a" d="M 10000.000671386719 10000.000671386719 L 10126.000671386719 10000.000671386719 L 10126.000671386719 10114 A 8 8 0 0 0 10134.000671386719 10122 L 10156.000671386719 10122" stroke="#000000" fill="none" stroke-width="2"></path><path part="right" sub="true" id="line_74d658f91063" d="M 10000.000671386719 10000.000671386719 L 10126.000671386719 10000.000671386719 L 10126.000671386719 10329 A 8 8 0 0 0 10134.000671386719 10337 L 10156.000671386719 10337" stroke="#000000" fill="none" stroke-width="2"></path></g><g class="svg-connection-con" transform="translate(0.5,0.5)"></g><g class="svg-freesums-con" transform="translate(0.5,0.5)"></g><g class="svg-freebos-con" transform="translate(0.5,0.5)"></g></g><g id="74d658f91063"><rect x="282" y="782.0000610351562" rx="20px" ry="20px" width="165" height="43" style="fill: #EAEAEA; stroke:#000000;stroke-width:2px;"></rect><g><text text-anchor="start" align="top" anchor="start" font-size="14px" font-weight="normal" fill="rgb(0, 0, 0)" style="font-size:14px;font-family:微软雅黑;color:#000000;font-style:normal;text-align:left;font-weight:normal;"><tspan x="321.09375" y="808.8000610351562"><tspan>智慧民生解决方案</tspan></tspan></text></g><g><path d="M512.036126 4.262904c-280.448474 0-507.75516 227.342812-507.75516 507.75516 0 280.412348 227.306685 507.75516 507.75516 507.75516 280.430411 0 507.737096-227.342812 507.737096-507.75516C1019.773223 231.623778 792.466537 4.262904 512.036126 4.262904zM653.163521 638.604622c-4.877051 37.860363-21.838349 68.405151-50.938084 91.688552s-62.119174 34.464491-98.949938 33.489081c-36.884953-0.957347-68.892856-12.590016-96.059834-34.934133-27.185041-22.289928-44.670171-54.803599-52.383136-97.504886l52.383136-8.724502c7.749092 25.234221 20.375234 46.133286 37.8423 62.570753 17.48513 16.50972 39.305415 24.313001 65.496984 23.283401 26.191568-0.957347 47.018381-11.650732 62.570753-31.989839 15.498183-20.393297 22.271865-43.676698 20.375234-69.850203-1.95082-26.209631-12.138437-46.584865-30.562851-61.143764-18.442477-14.558899-48.011854-24.746516-88.762321-30.562851l0-37.8423c40.750467-3.865514 70.301782-14.558899 88.762321-32.025966 18.442477-17.467067 26.66121-40.244699 24.746516-68.405151-1.95082-28.106262-14.558899-48.481496-37.8423-61.125701-23.283401-12.590016-48.029917-14.053131-74.221485-4.371282-26.191568 9.736038-47.054507 36.884953-62.588816 81.500935l-52.383136-8.724502c11.650732-34.934133 27.654683-64.033868 48.029917-87.317269s48.029917-36.848827 82.96405-40.750467c34.91607-3.865514 65.47892 0.487705 91.688552 13.095784 26.191568 12.644205 44.615982 32.007903 55.309367 58.217534 10.639196 26.209631 12.102311 54.857788 4.353219 85.872217-7.785218 31.068619-30.111272 58.217534-66.942036 81.500935 27.148915 11.650732 48.029917 29.099735 62.588816 52.383136C653.163521 570.199471 657.986382 600.798448 653.163521 638.604622z" fill="rgb(48, 191, 191)" transform="translate(296, 788.0000610351562) scale(0.01953125)"></path></g></g><g id="c60a9069a2bc"><rect x="483.09375" y="706" rx="14px" ry="14px" width="91" height="31" style="fill: transparent; stroke:none;"></rect><g><text text-anchor="start" align="top" anchor="start" font-size="12px" font-weight="normal" fill="rgb(0, 0, 0)" style="font-size:12px;font-family:微软雅黑;color:#000000;font-style:normal;text-align:left;font-weight:normal;"><tspan x="517.1875610351562" y="725.1066870117188"><tspan>智慧治理</tspan></tspan></text></g><g><path d="M784.352 184.224c-15.968-6.624-34.304-2.944-46.496 9.248-53.92 53.888-141.696 53.92-195.68 0-87.264-87.168-229.12-87.168-316.32 0-8.032 7.968-12.512 18.848-12.512 30.176l0 554.656c0 23.552 19.072 42.656 42.656 42.656s42.656-19.104 42.656-42.656l0-194.272c54.24-42.528 133.152-38.88 183.168 11.104 87.264 87.168 229.152 87.168 316.32 0 8.032-8.032 12.512-18.848 12.512-30.176l0-341.344c0-17.28-10.4-32.8-26.336-39.424z" fill="rgb(68, 68, 68)" transform="translate(492.09375, 705) scale(0.01953125)"></path></g></g><g id="501a745715f1"><rect x="610.1875610351562" y="708.6666870117188" rx="13" ry="13" width="366" height="26" style="fill: transparent; stroke:none;"></rect><g><text text-anchor="start" align="top" anchor="start" font-size="12px" font-weight="normal" fill="rgb(0, 0, 0)" style="font-size:12px;font-family:微软雅黑;color:#000000;font-style:normal;text-align:left;font-weight:normal;"><tspan x="619.1875610351562" y="725.1066870117188"><tspan>实时跨镜追踪、姿态检测、行为识别、人脸识别、人群密度估计等</tspan></tspan></text></g></g><g id="85b770b8f908"><rect x="483.09375" y="747" rx="14px" ry="14px" width="91" height="31" style="fill: transparent; stroke:none;"></rect><g><text text-anchor="start" align="top" anchor="start" font-size="12px" font-weight="normal" fill="rgb(0, 0, 0)" style="font-size:12px;font-family:微软雅黑;color:#000000;font-style:normal;text-align:left;font-weight:normal;"><tspan x="517.1875610351562" y="766.1066870117188"><tspan>智慧生活</tspan></tspan></text></g><g><path d="M784.352 184.224c-15.968-6.624-34.304-2.944-46.496 9.248-53.92 53.888-141.696 53.92-195.68 0-87.264-87.168-229.12-87.168-316.32 0-8.032 7.968-12.512 18.848-12.512 30.176l0 554.656c0 23.552 19.072 42.656 42.656 42.656s42.656-19.104 42.656-42.656l0-194.272c54.24-42.528 133.152-38.88 183.168 11.104 87.264 87.168 229.152 87.168 316.32 0 8.032-8.032 12.512-18.848 12.512-30.176l0-341.344c0-17.28-10.4-32.8-26.336-39.424z" fill="rgb(255, 159, 26)" transform="translate(492.09375, 746) scale(0.01953125)"></path></g></g><g id="d9edf6178aef"><rect x="610.1875610351562" y="749.6666870117188" rx="13" ry="13" width="342" height="26" style="fill: transparent; stroke:none;"></rect><g><text text-anchor="start" align="top" anchor="start" font-size="12px" font-weight="normal" fill="rgb(0, 0, 0)" style="font-size:12px;font-family:微软雅黑;color:#000000;font-style:normal;text-align:left;font-weight:normal;"><tspan x="619.1875610351562" y="766.1066870117188"><tspan>咳嗽、跌倒等健康异常行为检测、轨迹追踪、运动评估指导等</tspan></tspan></text></g></g><g id="b32903a13f9f"><rect x="483.09375" y="788.0000610351562" rx="14px" ry="14px" width="91" height="31" style="fill: transparent; stroke:none;"></rect><g><text text-anchor="start" align="top" anchor="start" font-size="12px" font-weight="normal" fill="rgb(0, 0, 0)" style="font-size:12px;font-family:微软雅黑;color:#000000;font-style:normal;text-align:left;font-weight:normal;"><tspan x="517.1875610351562" y="807.1066870117188"><tspan>疫情防控</tspan></tspan></text></g><g><path d="M784.352 184.224c-15.968-6.624-34.304-2.944-46.496 9.248-53.92 53.888-141.696 53.92-195.68 0-87.264-87.168-229.12-87.168-316.32 0-8.032 7.968-12.512 18.848-12.512 30.176l0 554.656c0 23.552 19.072 42.656 42.656 42.656s42.656-19.104 42.656-42.656l0-194.272c54.24-42.528 133.152-38.88 183.168 11.104 87.264 87.168 229.152 87.168 316.32 0 8.032-8.032 12.512-18.848 12.512-30.176l0-341.344c0-17.28-10.4-32.8-26.336-39.424z" fill="rgb(99, 171, 247)" transform="translate(492.09375, 787.0000610351562) scale(0.01953125)"></path></g></g><g id="284913ad8375"><rect x="610.1875610351562" y="790.6666870117188" rx="13" ry="13" width="390" height="26" style="fill: transparent; stroke:none;"></rect><g><text text-anchor="start" align="top" anchor="start" font-size="12px" font-weight="normal" fill="rgb(0, 0, 0)" style="font-size:12px;font-family:微软雅黑;color:#000000;font-style:normal;text-align:left;font-weight:normal;"><tspan x="619.1875610351562" y="807.1066870117188"><tspan>口罩佩戴识别、防疫服穿着识别、测温亮码行为识别、人群距离检测等</tspan></tspan></text></g></g><g id="7bddbd8ad437"><rect x="483.09375" y="829.0000610351562" rx="14px" ry="14px" width="91" height="31" style="fill: transparent; stroke:none;"></rect><g><text text-anchor="start" align="top" anchor="start" font-size="12px" font-weight="normal" fill="rgb(0, 0, 0)" style="font-size:12px;font-family:微软雅黑;color:#000000;font-style:normal;text-align:left;font-weight:normal;"><tspan x="517.1875610351562" y="848.1066870117188"><tspan>智能制造</tspan></tspan></text></g><g><path d="M784.352 184.224c-15.968-6.624-34.304-2.944-46.496 9.248-53.92 53.888-141.696 53.92-195.68 0-87.264-87.168-229.12-87.168-316.32 0-8.032 7.968-12.512 18.848-12.512 30.176l0 554.656c0 23.552 19.072 42.656 42.656 42.656s42.656-19.104 42.656-42.656l0-194.272c54.24-42.528 133.152-38.88 183.168 11.104 87.264 87.168 229.152 87.168 316.32 0 8.032-8.032 12.512-18.848 12.512-30.176l0-341.344c0-17.28-10.4-32.8-26.336-39.424z" fill="rgb(48, 191, 191)" transform="translate(492.09375, 828.0000610351562) scale(0.01953125)"></path></g></g><g id="b85f9bbde40e"><rect x="610.1875610351562" y="831.6666870117188" rx="13" ry="13" width="282" height="26" style="fill: transparent; stroke:none;"></rect><g><text text-anchor="start" align="top" anchor="start" font-size="12px" font-weight="normal" fill="rgb(0, 0, 0)" style="font-size:12px;font-family:微软雅黑;color:#000000;font-style:normal;text-align:left;font-weight:normal;"><tspan x="619.1875610351562" y="848.1066870117188"><tspan>行为规范性识别、智能视觉检测、视觉引导定位等</tspan></tspan></text></g></g><g id="fa2e9d94f0d4"><rect x="483.09375" y="870.0000610351562" rx="14px" ry="14px" width="91" height="31" style="fill: transparent; stroke:none;"></rect><g><text text-anchor="start" align="top" anchor="start" font-size="12px" font-weight="normal" fill="rgb(0, 0, 0)" style="font-size:12px;font-family:微软雅黑;color:#000000;font-style:normal;text-align:left;font-weight:normal;"><tspan x="517.1875610351562" y="889.1066870117188"><tspan>智慧农业</tspan></tspan></text></g><g><path d="M784.352 184.224c-15.968-6.624-34.304-2.944-46.496 9.248-53.92 53.888-141.696 53.92-195.68 0-87.264-87.168-229.12-87.168-316.32 0-8.032 7.968-12.512 18.848-12.512 30.176l0 554.656c0 23.552 19.072 42.656 42.656 42.656s42.656-19.104 42.656-42.656l0-194.272c54.24-42.528 133.152-38.88 183.168 11.104 87.264 87.168 229.152 87.168 316.32 0 8.032-8.032 12.512-18.848 12.512-30.176l0-341.344c0-17.28-10.4-32.8-26.336-39.424z" fill="rgb(113, 203, 45)" transform="translate(492.09375, 869.0000610351562) scale(0.01953125)"></path></g></g><g id="3cdc557173a0"><rect x="610.1875610351562" y="872.6666870117188" rx="13" ry="13" width="342" height="26" style="fill: transparent; stroke:none;"></rect><g><text text-anchor="start" align="top" anchor="start" font-size="12px" font-weight="normal" fill="rgb(0, 0, 0)" style="font-size:12px;font-family:微软雅黑;color:#000000;font-style:normal;text-align:left;font-weight:normal;"><tspan x="619.1875610351562" y="889.1066870117188"><tspan>采摘过程果实检测与果实分割、果实成熟度识别、垄线检测等</tspan></tspan></text></g></g><g id="622f8517d35a"><rect x="282" y="567" rx="20px" ry="20px" width="109" height="43" style="fill: #EAEAEA; stroke:#000000;stroke-width:2px;"></rect><g><text text-anchor="start" align="top" anchor="start" font-size="14px" font-weight="normal" fill="rgb(0, 0, 0)" style="font-size:14px;font-family:微软雅黑;color:#000000;font-style:normal;text-align:left;font-weight:normal;"><tspan x="321.09375" y="593.8"><tspan>智能产品</tspan></tspan></text></g><g><path d="M512.036126 4.262904c-280.448474 0-507.75516 227.342812-507.75516 507.773223 0 280.412348 227.306685 507.75516 507.75516 507.75516 280.430411 0 507.737096-227.342812 507.737096-507.75516C1019.773223 231.623778 792.466537 4.262904 512.036126 4.262904zM654.608573 756.520868 360.630799 756.520868l0-11.650732c1.896631-29.099735 15.498183-55.309367 40.750467-78.592768 25.216158-23.283401 57.224061-59.680649 96.059834-109.155618 38.781584-49.493032 64.015805-87.786911 75.666537-114.990016 11.650732-27.148915 16.022014-50.432316 13.113847-69.850203-2.908167-19.38176-12.1565-35.385712-27.654683-48.029917-15.552373-12.590016-33.489081-17.918645-53.846252-16.003951-20.375234 1.95082-39.79312 9.736038-58.217534 23.283401-18.46054 13.601552-32.513671 33.976786-42.213583 61.125701l-55.309367-8.724502c15.498183-44.615982 35.385712-77.147716 59.680649-97.504886 24.240748-20.375234 52.852778-31.520198 85.872217-33.471018 19.363697-1.914694 36.830764-1.463115 52.383136 1.463115 15.498183 2.908167 31.520198 9.736038 48.029917 20.375234 16.45553 10.693385 30.057082 26.697336 40.750467 48.029917 10.639196 21.38677 14.558899 47.07257 11.650732 77.147716-2.908167 30.111272-17.972835 65.984689-45.12175 107.692503-27.203105 41.762004-79.586241 107.240924-157.185535 196.454824L654.608573 704.119668 654.608573 756.520868z" fill="rgb(255, 159, 26)" transform="translate(296, 573) scale(0.01953125)"></path></g></g><g id="6ddd15c2376a"><rect x="427.09375" y="491" rx="14px" ry="14px" width="151" height="31" style="fill: transparent; stroke:none;"></rect><g><text text-anchor="start" align="top" anchor="start" font-size="12px" font-weight="normal" fill="rgb(0, 0, 0)" style="font-size:12px;font-family:微软雅黑;color:#000000;font-style:normal;text-align:left;font-weight:normal;"><tspan x="461.1875" y="510.10668701171875"><tspan>泛安防智能视频产品</tspan></tspan></text></g><g><path d="M784.352 184.224c-15.968-6.624-34.304-2.944-46.496 9.248-53.92 53.888-141.696 53.92-195.68 0-87.264-87.168-229.12-87.168-316.32 0-8.032 7.968-12.512 18.848-12.512 30.176l0 554.656c0 23.552 19.072 42.656 42.656 42.656s42.656-19.104 42.656-42.656l0-194.272c54.24-42.528 133.152-38.88 183.168 11.104 87.264 87.168 229.152 87.168 316.32 0 8.032-8.032 12.512-18.848 12.512-30.176l0-341.344c0-17.28-10.4-32.8-26.336-39.424z" fill="rgb(48, 191, 191)" transform="translate(436.09375, 490) scale(0.01953125)"></path></g></g><g id="c575215cc878"><rect x="614.1875610351562" y="493.66668701171875" rx="13" ry="13" width="399" height="26" style="fill: transparent; stroke:none;"></rect><g><text text-anchor="start" align="top" anchor="start" font-size="12px" font-weight="normal" fill="rgb(0, 0, 0)" style="font-size:12px;font-family:微软雅黑;color:#000000;font-style:normal;text-align:left;font-weight:normal;"><tspan x="623.1875610351562" y="510.10668701171875"><tspan>AI+安防应用产品，涵盖目标检测、行为分析、行人再识别、身份识别等</tspan></tspan></text></g></g><g id="c9797075cc53"><rect x="427.09375" y="532" rx="14px" ry="14px" width="151" height="31" style="fill: transparent; stroke:none;"></rect><g><text text-anchor="start" align="top" anchor="start" font-size="12px" font-weight="normal" fill="rgb(0, 0, 0)" style="font-size:12px;font-family:微软雅黑;color:#000000;font-style:normal;text-align:left;font-weight:normal;"><tspan x="461.1875" y="551.1066870117188"><tspan>智能端边产品与应用</tspan></tspan></text></g><g><path d="M784.352 184.224c-15.968-6.624-34.304-2.944-46.496 9.248-53.92 53.888-141.696 53.92-195.68 0-87.264-87.168-229.12-87.168-316.32 0-8.032 7.968-12.512 18.848-12.512 30.176l0 554.656c0 23.552 19.072 42.656 42.656 42.656s42.656-19.104 42.656-42.656l0-194.272c54.24-42.528 133.152-38.88 183.168 11.104 87.264 87.168 229.152 87.168 316.32 0 8.032-8.032 12.512-18.848 12.512-30.176l0-341.344c0-17.28-10.4-32.8-26.336-39.424z" fill="rgb(113, 203, 45)" transform="translate(436.09375, 531) scale(0.01953125)"></path></g></g><g id="09323155ed79"><rect x="614.1875610351562" y="534.6666870117188" rx="13" ry="13" width="380" height="26" style="fill: transparent; stroke:none;"></rect><g><text text-anchor="start" align="top" anchor="start" font-size="12px" font-weight="normal" fill="rgb(0, 0, 0)" style="font-size:12px;font-family:微软雅黑;color:#000000;font-style:normal;text-align:left;font-weight:normal;"><tspan x="623.1875610351562" y="551.1066870117188"><tspan>AI+边缘/移动终端应用产品，涵盖物体分类、目标检测、姿态检测等</tspan></tspan></text></g></g><g id="df303469fc94"><rect x="427.09375" y="573" rx="14px" ry="14px" width="163" height="31" style="fill: transparent; stroke:none;"></rect><g><text text-anchor="start" align="top" anchor="start" font-size="12px" font-weight="normal" fill="rgb(0, 0, 0)" style="font-size:12px;font-family:微软雅黑;color:#000000;font-style:normal;text-align:left;font-weight:normal;"><tspan x="461.1875" y="592.1066870117188"><tspan>复杂环境视觉应用产品</tspan></tspan></text></g><g><path d="M784.352 184.224c-15.968-6.624-34.304-2.944-46.496 9.248-53.92 53.888-141.696 53.92-195.68 0-87.264-87.168-229.12-87.168-316.32 0-8.032 7.968-12.512 18.848-12.512 30.176l0 554.656c0 23.552 19.072 42.656 42.656 42.656s42.656-19.104 42.656-42.656l0-194.272c54.24-42.528 133.152-38.88 183.168 11.104 87.264 87.168 229.152 87.168 316.32 0 8.032-8.032 12.512-18.848 12.512-30.176l0-341.344c0-17.28-10.4-32.8-26.336-39.424z" fill="rgb(99, 171, 247)" transform="translate(436.09375, 572) scale(0.01953125)"></path></g></g><g id="ca10d7a06e43"><rect x="626.1875610351562" y="575.6666870117188" rx="13" ry="13" width="438" height="26" style="fill: transparent; stroke:none;"></rect><g><text text-anchor="start" align="top" anchor="start" font-size="12px" font-weight="normal" fill="rgb(0, 0, 0)" style="font-size:12px;font-family:微软雅黑;color:#000000;font-style:normal;text-align:left;font-weight:normal;"><tspan x="635.1875610351562" y="592.1066870117188"><tspan>光照多变、背景复杂、尺度变化大等复杂环境下的目标检测和视觉识别应用系统</tspan></tspan></text></g></g><g id="d87ad3b17355"><rect x="427.09375" y="614" rx="14px" ry="14px" width="127" height="31" style="fill: transparent; stroke:none;"></rect><g><text text-anchor="start" align="top" anchor="start" font-size="12px" font-weight="normal" fill="rgb(0, 0, 0)" style="font-size:12px;font-family:微软雅黑;color:#000000;font-style:normal;text-align:left;font-weight:normal;"><tspan x="461.1875" y="633.1066870117188"><tspan>视频大数据产品</tspan></tspan></text></g><g><path d="M784.352 184.224c-15.968-6.624-34.304-2.944-46.496 9.248-53.92 53.888-141.696 53.92-195.68 0-87.264-87.168-229.12-87.168-316.32 0-8.032 7.968-12.512 18.848-12.512 30.176l0 554.656c0 23.552 19.072 42.656 42.656 42.656s42.656-19.104 42.656-42.656l0-194.272c54.24-42.528 133.152-38.88 183.168 11.104 87.264 87.168 229.152 87.168 316.32 0 8.032-8.032 12.512-18.848 12.512-30.176l0-341.344c0-17.28-10.4-32.8-26.336-39.424z" fill="rgb(191, 30, 27)" transform="translate(436.09375, 613) scale(0.01953125)"></path></g></g><g id="38257126abac"><rect x="590.1875610351562" y="616.6666870117188" rx="13" ry="13" width="486" height="26" style="fill: transparent; stroke:none;"></rect><g><text text-anchor="start" align="top" anchor="start" font-size="12px" font-weight="normal" fill="rgb(0, 0, 0)" style="font-size:12px;font-family:微软雅黑;color:#000000;font-style:normal;text-align:left;font-weight:normal;"><tspan x="599.1875610351562" y="633.1066870117188"><tspan>高效人机协同操作系统和行业解决方案，涵盖人、车智能检索、跨境追踪、视频结构化等</tspan></tspan></text></g></g><g id="807301ebab02"><rect x="427.09375" y="655" rx="14px" ry="14px" width="115" height="31" style="fill: transparent; stroke:none;"></rect><g><text text-anchor="start" align="top" anchor="start" font-size="12px" font-weight="normal" fill="rgb(0, 0, 0)" style="font-size:12px;font-family:微软雅黑;color:#000000;font-style:normal;text-align:left;font-weight:normal;"><tspan x="461.1875" y="674.1066870117188"><tspan>智能遥感产品</tspan></tspan></text></g><g><path d="M784.352 184.224c-15.968-6.624-34.304-2.944-46.496 9.248-53.92 53.888-141.696 53.92-195.68 0-87.264-87.168-229.12-87.168-316.32 0-8.032 7.968-12.512 18.848-12.512 30.176l0 554.656c0 23.552 19.072 42.656 42.656 42.656s42.656-19.104 42.656-42.656l0-194.272c54.24-42.528 133.152-38.88 183.168 11.104 87.264 87.168 229.152 87.168 316.32 0 8.032-8.032 12.512-18.848 12.512-30.176l0-341.344c0-17.28-10.4-32.8-26.336-39.424z" fill="rgb(255, 159, 26)" transform="translate(436.09375, 654) scale(0.01953125)"></path></g></g><g id="fd2c9fec1b81"><rect x="578.1875610351562" y="657.6666870117188" rx="13" ry="13" width="443" height="26" style="fill: transparent; stroke:none;"></rect><g><text text-anchor="start" align="top" anchor="start" font-size="12px" font-weight="normal" fill="rgb(0, 0, 0)" style="font-size:12px;font-family:微软雅黑;color:#000000;font-style:normal;text-align:left;font-weight:normal;"><tspan x="587.1875610351562" y="674.1066870117188"><tspan>无人机/高点摄像机视觉遥感产品，涵盖小目标检测、人群密度估计、目标跟踪等</tspan></tspan></text></g></g><g id="cdcedde63d0d"><rect x="282" y="229" rx="20px" ry="20px" width="109" height="43" style="fill: #EAEAEA; stroke:#000000;stroke-width:2px;"></rect><g><text text-anchor="start" align="top" anchor="start" font-size="14px" font-weight="normal" fill="rgb(0, 0, 0)" style="font-size:14px;font-family:微软雅黑;color:#000000;font-style:normal;text-align:left;font-weight:normal;"><tspan x="321.09375" y="255.8"><tspan>关键技术</tspan></tspan></text></g><g><path d="M508.295791 3.713113C227.559513 3.713113 0 231.27262601 0 512s227.568417 508.286887 508.295791 508.286887c280.71847001 0 508.286887-227.568417 508.28688699-508.286887S789.014261 3.713113 508.295791 3.713113zM564.57126999 785.114157l-66.52438299 0L498.046887 361.22267799c-16.01892199 15.279861-37.02427801 30.550817-63.01607 45.82177401-25.991791 15.279861-49.338991 26.730852-70.032696 34.370783l0-64.3072c37.202365-17.488139 69.721043-38.680487 97.564939-63.568139 27.834991-24.878748 47.549217-49.027339 59.13377399-72.43686999l42.86553001-2e-8L564.562365 785.114157z" fill="rgb(99, 171, 247)" transform="translate(296, 235) scale(0.01953125)"></path></g></g><g id="7ed553e83644"><rect x="427.09375" y="30" rx="14px" ry="14px" width="91" height="31" style="fill: transparent; stroke:none;"></rect><g><text text-anchor="start" align="top" anchor="start" font-size="12px" font-weight="normal" fill="rgb(0, 0, 0)" style="font-size:12px;font-family:微软雅黑;color:#000000;font-style:normal;text-align:left;font-weight:normal;"><tspan x="461.1875" y="49.10665649414062"><tspan>目标检测</tspan></tspan></text></g><g><path d="M784.352 184.224c-15.968-6.624-34.304-2.944-46.496 9.248-53.92 53.888-141.696 53.92-195.68 0-87.264-87.168-229.12-87.168-316.32 0-8.032 7.968-12.512 18.848-12.512 30.176l0 554.656c0 23.552 19.072 42.656 42.656 42.656s42.656-19.104 42.656-42.656l0-194.272c54.24-42.528 133.152-38.88 183.168 11.104 87.264 87.168 229.152 87.168 316.32 0 8.032-8.032 12.512-18.848 12.512-30.176l0-341.344c0-17.28-10.4-32.8-26.336-39.424z" fill="rgb(80, 194, 139)" transform="translate(436.09375, 29) scale(0.01953125)"></path></g></g><g id="bb67b54bb2a6"><rect x="427.09375" y="71" rx="14px" ry="14px" width="91" height="31" style="fill: transparent; stroke:none;"></rect><g><text text-anchor="start" align="top" anchor="start" font-size="12px" font-weight="normal" fill="rgb(0, 0, 0)" style="font-size:12px;font-family:微软雅黑;color:#000000;font-style:normal;text-align:left;font-weight:normal;"><tspan x="461.1875" y="90.10665649414062"><tspan>姿态检测</tspan></tspan></text></g><g><path d="M784.352 184.224c-15.968-6.624-34.304-2.944-46.496 9.248-53.92 53.888-141.696 53.92-195.68 0-87.264-87.168-229.12-87.168-316.32 0-8.032 7.968-12.512 18.848-12.512 30.176l0 554.656c0 23.552 19.072 42.656 42.656 42.656s42.656-19.104 42.656-42.656l0-194.272c54.24-42.528 133.152-38.88 183.168 11.104 87.264 87.168 229.152 87.168 316.32 0 8.032-8.032 12.512-18.848 12.512-30.176l0-341.344c0-17.28-10.4-32.8-26.336-39.424z" fill="rgb(191, 30, 27)" transform="translate(436.09375, 70) scale(0.01953125)"></path></g></g><g id="4f4cd8b72f0c"><rect x="427.09375" y="112" rx="14px" ry="14px" width="103" height="31" style="fill: transparent; stroke:none;"></rect><g><text text-anchor="start" align="top" anchor="start" font-size="12px" font-weight="normal" fill="rgb(0, 0, 0)" style="font-size:12px;font-family:微软雅黑;color:#000000;font-style:normal;text-align:left;font-weight:normal;"><tspan x="461.1875" y="131.10665649414062"><tspan>行人再识别</tspan></tspan></text></g><g><path d="M784.352 184.224c-15.968-6.624-34.304-2.944-46.496 9.248-53.92 53.888-141.696 53.92-195.68 0-87.264-87.168-229.12-87.168-316.32 0-8.032 7.968-12.512 18.848-12.512 30.176l0 554.656c0 23.552 19.072 42.656 42.656 42.656s42.656-19.104 42.656-42.656l0-194.272c54.24-42.528 133.152-38.88 183.168 11.104 87.264 87.168 229.152 87.168 316.32 0 8.032-8.032 12.512-18.848 12.512-30.176l0-341.344c0-17.28-10.4-32.8-26.336-39.424z" fill="rgb(96, 160, 240)" transform="translate(436.09375, 111) scale(0.01953125)"></path></g></g><g id="cd22a855891b"><rect x="427.09375" y="153" rx="14px" ry="14px" width="91" height="31" style="fill: transparent; stroke:none;"></rect><g><text text-anchor="start" align="top" anchor="start" font-size="12px" font-weight="normal" fill="rgb(0, 0, 0)" style="font-size:12px;font-family:微软雅黑;color:#000000;font-style:normal;text-align:left;font-weight:normal;"><tspan x="461.1875" y="172.10665649414062"><tspan>行为识别</tspan></tspan></text></g><g><path d="M784.352 184.224c-15.968-6.624-34.304-2.944-46.496 9.248-53.92 53.888-141.696 53.92-195.68 0-87.264-87.168-229.12-87.168-316.32 0-8.032 7.968-12.512 18.848-12.512 30.176l0 554.656c0 23.552 19.072 42.656 42.656 42.656s42.656-19.104 42.656-42.656l0-194.272c54.24-42.528 133.152-38.88 183.168 11.104 87.264 87.168 229.152 87.168 316.32 0 8.032-8.032 12.512-18.848 12.512-30.176l0-341.344c0-17.28-10.4-32.8-26.336-39.424z" fill="rgb(68, 68, 68)" transform="translate(436.09375, 152) scale(0.01953125)"></path></g></g><g id="239caf896ed1"><rect x="427.09375" y="194" rx="14px" ry="14px" width="91" height="31" style="fill: transparent; stroke:none;"></rect><g><text text-anchor="start" align="top" anchor="start" font-size="12px" font-weight="normal" fill="rgb(0, 0, 0)" style="font-size:12px;font-family:微软雅黑;color:#000000;font-style:normal;text-align:left;font-weight:normal;"><tspan x="461.1875" y="213.10665649414062"><tspan>目标跟踪</tspan></tspan></text></g><g><path d="M784.352 184.224c-15.968-6.624-34.304-2.944-46.496 9.248-53.92 53.888-141.696 53.92-195.68 0-87.264-87.168-229.12-87.168-316.32 0-8.032 7.968-12.512 18.848-12.512 30.176l0 554.656c0 23.552 19.072 42.656 42.656 42.656s42.656-19.104 42.656-42.656l0-194.272c54.24-42.528 133.152-38.88 183.168 11.104 87.264 87.168 229.152 87.168 316.32 0 8.032-8.032 12.512-18.848 12.512-30.176l0-341.344c0-17.28-10.4-32.8-26.336-39.424z" fill="rgb(255, 159, 26)" transform="translate(436.09375, 193) scale(0.01953125)"></path></g></g><g id="67d60b13f92b"><rect x="427.09375" y="235" rx="14px" ry="14px" width="91" height="31" style="fill: transparent; stroke:none;"></rect><g><text text-anchor="start" align="top" anchor="start" font-size="12px" font-weight="normal" fill="rgb(0, 0, 0)" style="font-size:12px;font-family:微软雅黑;color:#000000;font-style:normal;text-align:left;font-weight:normal;"><tspan x="461.1875" y="254.10665649414062"><tspan>目标分割</tspan></tspan></text></g><g><path d="M784.352 184.224c-15.968-6.624-34.304-2.944-46.496 9.248-53.92 53.888-141.696 53.92-195.68 0-87.264-87.168-229.12-87.168-316.32 0-8.032 7.968-12.512 18.848-12.512 30.176l0 554.656c0 23.552 19.072 42.656 42.656 42.656s42.656-19.104 42.656-42.656l0-194.272c54.24-42.528 133.152-38.88 183.168 11.104 87.264 87.168 229.152 87.168 316.32 0 8.032-8.032 12.512-18.848 12.512-30.176l0-341.344c0-17.28-10.4-32.8-26.336-39.424z" fill="rgb(191, 30, 27)" transform="translate(436.09375, 234) scale(0.01953125)"></path></g></g><g id="3770d8c9fa76"><rect x="427.09375" y="276" rx="14px" ry="14px" width="91" height="31" style="fill: transparent; stroke:none;"></rect><g><text text-anchor="start" align="top" anchor="start" font-size="12px" font-weight="normal" fill="rgb(0, 0, 0)" style="font-size:12px;font-family:微软雅黑;color:#000000;font-style:normal;text-align:left;font-weight:normal;"><tspan x="461.1875" y="295.10668701171875"><tspan>身份识别</tspan></tspan></text></g><g><path d="M784.352 184.224c-15.968-6.624-34.304-2.944-46.496 9.248-53.92 53.888-141.696 53.92-195.68 0-87.264-87.168-229.12-87.168-316.32 0-8.032 7.968-12.512 18.848-12.512 30.176l0 554.656c0 23.552 19.072 42.656 42.656 42.656s42.656-19.104 42.656-42.656l0-194.272c54.24-42.528 133.152-38.88 183.168 11.104 87.264 87.168 229.152 87.168 316.32 0 8.032-8.032 12.512-18.848 12.512-30.176l0-341.344c0-17.28-10.4-32.8-26.336-39.424z" fill="rgb(48, 191, 191)" transform="translate(436.09375, 275) scale(0.01953125)"></path></g></g><g id="20d52cea0512"><rect x="427.09375" y="317" rx="14px" ry="14px" width="103" height="31" style="fill: transparent; stroke:none;"></rect><g><text text-anchor="start" align="top" anchor="start" font-size="12px" font-weight="normal" fill="rgb(0, 0, 0)" style="font-size:12px;font-family:微软雅黑;color:#000000;font-style:normal;text-align:left;font-weight:normal;"><tspan x="461.1875" y="336.10668701171875"><tspan>视频结构化</tspan></tspan></text></g><g><path d="M784.352 184.224c-15.968-6.624-34.304-2.944-46.496 9.248-53.92 53.888-141.696 53.92-195.68 0-87.264-87.168-229.12-87.168-316.32 0-8.032 7.968-12.512 18.848-12.512 30.176l0 554.656c0 23.552 19.072 42.656 42.656 42.656s42.656-19.104 42.656-42.656l0-194.272c54.24-42.528 133.152-38.88 183.168 11.104 87.264 87.168 229.152 87.168 316.32 0 8.032-8.032 12.512-18.848 12.512-30.176l0-341.344c0-17.28-10.4-32.8-26.336-39.424z" fill="rgb(99, 171, 247)" transform="translate(436.09375, 316) scale(0.01953125)"></path></g></g><g id="7debe050ae97"><rect x="427.09375" y="358" rx="14px" ry="14px" width="91" height="31" style="fill: transparent; stroke:none;"></rect><g><text text-anchor="start" align="top" anchor="start" font-size="12px" font-weight="normal" fill="rgb(0, 0, 0)" style="font-size:12px;font-family:微软雅黑;color:#000000;font-style:normal;text-align:left;font-weight:normal;"><tspan x="461.1875" y="377.10668701171875"><tspan>文字识别</tspan></tspan></text></g><g><path d="M784.352 184.224c-15.968-6.624-34.304-2.944-46.496 9.248-53.92 53.888-141.696 53.92-195.68 0-87.264-87.168-229.12-87.168-316.32 0-8.032 7.968-12.512 18.848-12.512 30.176l0 554.656c0 23.552 19.072 42.656 42.656 42.656s42.656-19.104 42.656-42.656l0-194.272c54.24-42.528 133.152-38.88 183.168 11.104 87.264 87.168 229.152 87.168 316.32 0 8.032-8.032 12.512-18.848 12.512-30.176l0-341.344c0-17.28-10.4-32.8-26.336-39.424z" fill="rgb(113, 203, 45)" transform="translate(436.09375, 357) scale(0.01953125)"></path></g></g><g id="99b60ea2e9ef"><rect x="427.09375" y="399" rx="14px" ry="14px" width="91" height="31" style="fill: transparent; stroke:none;"></rect><g><text text-anchor="start" align="top" anchor="start" font-size="12px" font-weight="normal" fill="rgb(0, 0, 0)" style="font-size:12px;font-family:微软雅黑;color:#000000;font-style:normal;text-align:left;font-weight:normal;"><tspan x="461.1875" y="418.10668701171875"><tspan>物体分类</tspan></tspan></text></g><g><path d="M784.352 184.224c-15.968-6.624-34.304-2.944-46.496 9.248-53.92 53.888-141.696 53.92-195.68 0-87.264-87.168-229.12-87.168-316.32 0-8.032 7.968-12.512 18.848-12.512 30.176l0 554.656c0 23.552 19.072 42.656 42.656 42.656s42.656-19.104 42.656-42.656l0-194.272c54.24-42.528 133.152-38.88 183.168 11.104 87.264 87.168 229.152 87.168 316.32 0 8.032-8.032 12.512-18.848 12.512-30.176l0-341.344c0-17.28-10.4-32.8-26.336-39.424z" fill="rgb(191, 30, 27)" transform="translate(436.09375, 398) scale(0.01953125)"></path></g></g><g id="83a824336b4b"><rect x="427.09375" y="440" rx="14px" ry="14px" width="91" height="31" style="fill: transparent; stroke:none;"></rect><g><text text-anchor="start" align="top" anchor="start" font-size="12px" font-weight="normal" fill="rgb(0, 0, 0)" style="font-size:12px;font-family:微软雅黑;color:#000000;font-style:normal;text-align:left;font-weight:normal;"><tspan x="461.1875" y="459.10668701171875"><tspan>图像增强</tspan></tspan></text></g><g><path d="M784.352 184.224c-15.968-6.624-34.304-2.944-46.496 9.248-53.92 53.888-141.696 53.92-195.68 0-87.264-87.168-229.12-87.168-316.32 0-8.032 7.968-12.512 18.848-12.512 30.176l0 554.656c0 23.552 19.072 42.656 42.656 42.656s42.656-19.104 42.656-42.656l0-194.272c54.24-42.528 133.152-38.88 183.168 11.104 87.264 87.168 229.152 87.168 316.32 0 8.032-8.032 12.512-18.848 12.512-30.176l0-341.344c0-17.28-10.4-32.8-26.336-39.424z" fill="rgb(68, 68, 68)" transform="translate(436.09375, 439) scale(0.01953125)"></path></g></g><g transform="translate(282, 706)" id="sdjakdjak0"><g id="subline_74d658f91063" transform="translate(0.5,-1.5)"><path id="line_c60a9069a2bc" d="M 165 99 L 183 99 L 183 19 A 4 4 0 0 1 187 15 L 201.09375 15" p="74d658f91063" stroke="#000000" fill="none" stroke-linecap="square" stroke-width="2"></path><path id="line_501a745715f1" d="M 292.09375 15 L 311 15 L 311 15 L 328.18756103515625 15" p="c60a9069a2bc" stroke="#000000" fill="none" stroke-linecap="square" stroke-width="2"></path><path id="line_85b770b8f908" d="M 165 99 L 183 99 L 183 60 A 4 4 0 0 1 187 56 L 201.09375 56" p="74d658f91063" stroke="#000000" fill="none" stroke-linecap="square" stroke-width="2"></path><path id="line_d9edf6178aef" d="M 292.09375 56 L 311 56 L 311 56 L 328.18756103515625 56" p="85b770b8f908" stroke="#000000" fill="none" stroke-linecap="square" stroke-width="2"></path><path id="line_b32903a13f9f" d="M 165 99 L 183 99 L 183 99 L 201.09375 99" p="74d658f91063" stroke="#000000" fill="none" stroke-linecap="square" stroke-width="2"></path><path id="line_284913ad8375" d="M 292.09375 99 L 311 99 L 311 99 L 328.18756103515625 99" p="b32903a13f9f" stroke="#000000" fill="none" stroke-linecap="square" stroke-width="2"></path><path id="line_7bddbd8ad437" d="M 165 99 L 183 99 L 183 134 A 4 4 0 0 0 187 138 L 201.09375 138" p="74d658f91063" stroke="#000000" fill="none" stroke-linecap="square" stroke-width="2"></path><path id="line_b85f9bbde40e" d="M 292.09375 138 L 311 138 L 311 138 L 328.18756103515625 138" p="7bddbd8ad437" stroke="#000000" fill="none" stroke-linecap="square" stroke-width="2"></path><path id="line_fa2e9d94f0d4" d="M 165 99 L 183 99 L 183 175 A 4 4 0 0 0 187 179 L 201.09375 179" p="74d658f91063" stroke="#000000" fill="none" stroke-linecap="square" stroke-width="2"></path><path id="line_3cdc557173a0" d="M 292.09375 179 L 311 179 L 311 179 L 328.18756103515625 179" p="fa2e9d94f0d4" stroke="#000000" fill="none" stroke-linecap="square" stroke-width="2"></path></g><g transform="translate(0.5,-0.5)"></g><g class="svg-summary-con" transform="translate(0.5,-0.5)"></g><g class="svg-boundary-con" transform="translate(0.5,-0.5)"></g></g><g transform="translate(282, 491)" id="sdjakdjak1"><g id="subline_622f8517d35a" transform="translate(0.5,-1.5)"><path id="line_6ddd15c2376a" d="M 109 99 L 127 99 L 127 19 A 4 4 0 0 1 131 15 L 145.09375 15" p="622f8517d35a" stroke="#000000" fill="none" stroke-linecap="square" stroke-width="2"></path><path id="line_c575215cc878" d="M 296.09375 15 L 315 15 L 315 15 L 332.18756103515625 15" p="6ddd15c2376a" stroke="#000000" fill="none" stroke-linecap="square" stroke-width="2"></path><path id="line_c9797075cc53" d="M 109 99 L 127 99 L 127 60 A 4 4 0 0 1 131 56 L 145.09375 56" p="622f8517d35a" stroke="#000000" fill="none" stroke-linecap="square" stroke-width="2"></path><path id="line_09323155ed79" d="M 296.09375 56 L 315 56 L 315 56 L 332.18756103515625 56" p="c9797075cc53" stroke="#000000" fill="none" stroke-linecap="square" stroke-width="2"></path><path id="line_df303469fc94" d="M 109 99 L 127 99 L 127 99 L 145.09375 99" p="622f8517d35a" stroke="#000000" fill="none" stroke-linecap="square" stroke-width="2"></path><path id="line_ca10d7a06e43" d="M 308.09375 99 L 327 99 L 327 99 L 344.18756103515625 99" p="df303469fc94" stroke="#000000" fill="none" stroke-linecap="square" stroke-width="2"></path><path id="line_d87ad3b17355" d="M 109 99 L 127 99 L 127 134 A 4 4 0 0 0 131 138 L 145.09375 138" p="622f8517d35a" stroke="#000000" fill="none" stroke-linecap="square" stroke-width="2"></path><path id="line_38257126abac" d="M 272.09375 138 L 291 138 L 291 138 L 308.18756103515625 138" p="d87ad3b17355" stroke="#000000" fill="none" stroke-linecap="square" stroke-width="2"></path><path id="line_807301ebab02" d="M 109 99 L 127 99 L 127 175 A 4 4 0 0 0 131 179 L 145.09375 179" p="622f8517d35a" stroke="#000000" fill="none" stroke-linecap="square" stroke-width="2"></path><path id="line_fd2c9fec1b81" d="M 260.09375 179 L 279 179 L 279 179 L 296.18756103515625 179" p="807301ebab02" stroke="#000000" fill="none" stroke-linecap="square" stroke-width="2"></path></g><g transform="translate(0.5,-0.5)"></g><g class="svg-summary-con" transform="translate(0.5,-0.5)"></g><g class="svg-boundary-con" transform="translate(0.5,-0.5)"></g></g><g transform="translate(282, 30)" id="sdjakdjak2"><g id="subline_cdcedde63d0d" transform="translate(0.5,-1.5)"><path id="line_7ed553e83644" d="M 109 222 L 127 222 L 127 19 A 4 4 0 0 1 131 15 L 145.09375 15" p="cdcedde63d0d" stroke="#000000" fill="none" stroke-linecap="square" stroke-width="2"></path><path id="line_bb67b54bb2a6" d="M 109 222 L 127 222 L 127 60 A 4 4 0 0 1 131 56 L 145.09375 56" p="cdcedde63d0d" stroke="#000000" fill="none" stroke-linecap="square" stroke-width="2"></path><path id="line_4f4cd8b72f0c" d="M 109 222 L 127 222 L 127 101 A 4 4 0 0 1 131 97 L 145.09375 97" p="cdcedde63d0d" stroke="#000000" fill="none" stroke-linecap="square" stroke-width="2"></path><path id="line_cd22a855891b" d="M 109 222 L 127 222 L 127 142 A 4 4 0 0 1 131 138 L 145.09375 138" p="cdcedde63d0d" stroke="#000000" fill="none" stroke-linecap="square" stroke-width="2"></path><path id="line_239caf896ed1" d="M 109 222 L 127 222 L 127 183 A 4 4 0 0 1 131 179 L 145.09375 179" p="cdcedde63d0d" stroke="#000000" fill="none" stroke-linecap="square" stroke-width="2"></path><path id="line_67d60b13f92b" d="M 109 222 L 127 222 L 127 222 L 145.09375 222" p="cdcedde63d0d" stroke="#000000" fill="none" stroke-linecap="square" stroke-width="2"></path><path id="line_3770d8c9fa76" d="M 109 222 L 127 222 L 127 257 A 4 4 0 0 0 131 261 L 145.09375 261" p="cdcedde63d0d" stroke="#000000" fill="none" stroke-linecap="square" stroke-width="2"></path><path id="line_20d52cea0512" d="M 109 222 L 127 222 L 127 298 A 4 4 0 0 0 131 302 L 145.09375 302" p="cdcedde63d0d" stroke="#000000" fill="none" stroke-linecap="square" stroke-width="2"></path><path id="line_7debe050ae97" d="M 109 222 L 127 222 L 127 339 A 4 4 0 0 0 131 343 L 145.09375 343" p="cdcedde63d0d" stroke="#000000" fill="none" stroke-linecap="square" stroke-width="2"></path><path id="line_99b60ea2e9ef" d="M 109 222 L 127 222 L 127 380 A 4 4 0 0 0 131 384 L 145.09375 384" p="cdcedde63d0d" stroke="#000000" fill="none" stroke-linecap="square" stroke-width="2"></path><path id="line_83a824336b4b" d="M 109 222 L 127 222 L 127 421 A 4 4 0 0 0 131 425 L 145.09375 425" p="cdcedde63d0d" stroke="#000000" fill="none" stroke-linecap="square" stroke-width="2"></path></g><g transform="translate(0.5,-0.5)"></g><g class="svg-summary-con" transform="translate(0.5,-0.5)"></g><g class="svg-boundary-con" transform="translate(0.5,-0.5)"></g></g><g transform="translate(30, 438.5)" id="sdjakdjak3"><g id="subline_root" transform="translate(0.5,-1.5)"></g><g transform="translate(0.5,-0.5)"></g><g class="svg-summary-con" transform="translate(0.5,-0.5)"></g><g class="svg-boundary-con" transform="translate(0.5,-0.5)"></g></g><g id="root"><rect x="30" y="438.5" rx="6px" ry="6px" width="192" height="55" style="fill: #388E3C; stroke:none;"></rect><g><text text-anchor="start" align="top" anchor="start" font-size="20px" font-weight="normal" fill="rgb(255, 255, 255)" style="font-size:20px;font-family:微软雅黑;color:#ffffff;font-style:normal;text-align:left;font-weight:normal;background-color:#388E3C;"><tspan x="46" y="473.5"><tspan>人因工程技术团队</tspan></tspan></text></g></g></svg>